{"title":"White House Down 2013 WEBRiP XViD UNiQUE","uid":8969433,"size":1522251695,"categoryP":"video","categoryS":"movies","magnet":"?xt=urn:btih:3f6082666b07e391ff8d4d4cf109e0d5cee5c552&amp;dn=White+House+Down+2013+WEBRiP+XViD+UNiQUE&amp;tr=udp%3A%2F%2Ftracker.openbittorrent.com%3A80&amp;tr=udp%3A%2F%2Fopen.demonii.com%3A1337&amp;tr=udp%3A%2F%2Ftracker.coppersurfer.tk%3A6969&amp;tr=udp%3A%2F%2Fexodus.desync.com%3A6969","seeders":28,"leechers":4,"uploader":"xxxlavalxxx","files":-1,"time":1380306314,"description":" &lt;a href=&quot;http://www.imdb.com/title/tt2334879/&quot; rel=&quot;nofollow&quot; target=&quot;_NEW&quot;&gt;http://www.imdb.com/title/tt2334879/&lt;/a&gt;\n\n\nWhile on a tour of the White House with his young daughter, a Capitol policeman springs into action to save his child and protect the president from a heavily armed group of paramilitary invaders.\n\nDirector: Roland Emmerich\nWriter: James Vanderbilt\nStars: Channing Tatum, Jamie Foxx, Maggie Gyllenhaal \n\nGenres: Action | Drama | Thriller\nCountry: USA\nLanguage: English\n\n\n\nFormat                                   : AVI\nFormat/Info                              : Audio Video Interleave\nFile size                                : 1.41 GiB\nDuration                                 : 2h 8mn\nOverall bit rate                         : 1 571 Kbps\nWriting application                      : VirtualDubMod 1.5.10.2 (build 2540/release)\nWriting library                          : VirtualDubMod build 2540/release\n\nVideo\nID                                       : 0\nFormat                                   : MPEG-4 Visual\nFormat profile                           : Advanced Simple@L5\nFormat settings, BVOP                    : 2\nFormat settings, QPel                    : No\nFormat settings, GMC                     : No warppoints\nFormat settings, Matrix                  : Default (H.263)\nMuxing mode                              : Packed bitstream\nCodec ID                                 : XVID\nCodec ID/Hint                            : XviD\nDuration                                 : 2h 8mn\nBit rate                                 : 1 419 Kbps\nWidth                                    : 720 pixels\nHeight                                   : 400 pixels\nDisplay aspect ratio                     : 16:9\nFrame rate                               : 60.000 fps\nColor space                              : YUV\nChroma subsampling                       : 4:2:0\nBit depth                                : 8 bits\nScan type                                : Progressive\nCompression mode                         : Lossy\nBits/(Pixel*Frame)                       : 0.082\nStream size                              : 1.27 GiB (90%)\nWriting library                          : XviD 64\n\nAudio\nID                                       : 1\nFormat                                   : AC-3\nFormat/Info                              : Audio Coding 3\nMode extension                           : CM (complete main)\nFormat settings, Endianness              : Big\nCodec ID                                 : 2000\nDuration                                 : 2h 8mn\nBit rate mode                            : Constant\nBit rate                                 : 128 Kbps\nChannel(s)                               : 2 channels\nChannel positions                        : Front: L R\nSampling rate                            : 48.0 KHz\nBit depth                                : 16 bits\nCompression mode                         : Lossy\nStream size                              : 117 MiB (8%)\nAlignment                                : Split accross interleaves\nInterleave, duration                     : 17 ms (1.00 video frame)\nInterleave, preload duration             : 500 ms\n\n\nSource Used  White.House.Down.2013.720p.HDR6.AC3.H264-N.E.T.ism  - Thanks\n\n\n\n &lt;a href=&quot;\nhttp://bayimg.com/cAaAmAafC&quot; rel=&quot;nofollow&quot; target=&quot;_NEW&quot;&gt;\nhttp://bayimg.com/cAaAmAafC&lt;/a&gt; &lt;a href=&quot;\nhttp://bayimg.com/CaAaoAAfC&quot; rel=&quot;nofollow&quot; target=&quot;_NEW&quot;&gt;\nhttp://bayimg.com/CaAaoAAfC&lt;/a&gt;","torrent":{"xt":"urn:btih:3f6082666b07e391ff8d4d4cf109e0d5cee5c552","amp;dn":"White+House+Down+2013+WEBRiP+XViD+UNiQUE","amp;tr":["udp%3A%2F%2Ftracker.openbittorrent.com%3A80","udp%3A%2F%2Fopen.demonii.com%3A1337","udp%3A%2F%2Ftracker.coppersurfer.tk%3A6969","udp%3A%2F%2Fexodus.desync.com%3A6969"],"infoHash":"3f6082666b07e391ff8d4d4cf109e0d5cee5c552","infoHashBuffer":{"type":"Buffer","data":[63,96,130,102,107,7,227,145,255,141,77,76,241,9,224,213,206,229,197,82]},"announce":[],"urlList":[]}}